<?xml version="1.0" encoding="utf-8"?>
<!-- Generator: Adobe Illustrator 24.1.3, SVG Export Plug-In . SVG Version: 6.00 Build 0)  -->
<svg version="1.1" id="Ebene_1" xmlns="http://www.w3.org/2000/svg" xmlns:xlink="http://www.w3.org/1999/xlink" x="0px" y="0px"
	 viewBox="0 0 93.8 36.7" style="enable-background:new 0 0 93.8 36.7;" xml:space="preserve">
<style type="text/css">
	.st0{fill:#FFFFFF;}
</style>
<path class="st0" d="M68.3,11.1c-1.2-0.2-2.3-0.4-2.3-0.9c0-0.4,0.8-0.9,2.2-0.9c1.1,0,2.2,0.4,2.8,0.8l0.2,0.1l1-1.3L72,8.8
	c-1.1-0.7-2.5-1.1-3.8-1.1c-2.4,0-4.1,1.1-4.1,2.7c0,1.7,2,2,3.8,2.3c1.3,0.2,2.5,0.4,2.5,1c0,0.4-0.7,0.9-2.1,0.9
	c-1.1,0-2.3-0.3-3.5-0.9l-0.2-0.1l-0.7,1.5l0.2,0.1c1.3,0.6,2.8,1,4.1,1c2.4,0,4-1,4-2.6C72.3,11.8,70.1,11.4,68.3,11.1L68.3,11.1z"
	/>
<polygon class="st0" points="27.6,11.3 24.2,11.3 24.2,9.5 29.8,9.5 29.8,7.9 22.4,7.9 22.4,15.9 24.2,15.9 24.2,12.9 27.6,12.9 "/>
<path class="st0" d="M41.5,12.7c1-0.2,2-0.9,2-2.4c0-2.1-1.6-2.4-3.3-2.4h-4.7v7.9h1.8v-3h2.2l2.2,3h2.2L41.5,12.7L41.5,12.7z
	 M37.3,9.4H40c1.3,0,1.7,0.2,1.7,0.9s-0.4,1-1.7,1h-2.8L37.3,9.4L37.3,9.4z"/>
<path class="st0" d="M53.8,7.7c-2.9,0-4.7,1.6-4.7,4.2c0,1.9,1.2,4.1,4.7,4.1s4.7-2.2,4.7-4.1C58.5,9.3,56.8,7.7,53.8,7.7L53.8,7.7z
	 M53.8,14.5c-1.1,0-2.9-0.3-2.9-2.6c0-1.6,1.1-2.6,2.9-2.6c1.8,0,2.9,1,2.9,2.6C56.8,14.2,54.9,14.5,53.8,14.5L53.8,14.5z"/>
<g>
	<path class="st0" d="M32.1,28.2c-0.1,0-0.1,0.1-0.2,0.1c-0.1,0.1-0.3,0.2-0.4,0.2c-0.3,0-0.5-0.2-0.5-0.6v-2.4h1.1v-0.4H31v-1h-0.4
		l-0.5,1h-0.6v0.3h0.6v2.5c0,0.6,0.4,0.9,0.9,0.9c0.3,0,0.7-0.1,1.1-0.5l0,0L32.1,28.2L32.1,28.2z"/>
	<path class="st0" d="M38.4,28.5c-0.2,0-0.3-0.1-0.3-0.3V25l-1.5,0.1v0.3l0.4,0.1c0.1,0,0.2,0,0.2,0.3v2.5c0,0.1,0,0.2-0.3,0.3
		l-0.3,0.1v0.3h2.1v-0.3L38.4,28.5L38.4,28.5z"/>
	<circle class="st0" cx="37.6" cy="23.5" r="0.5"/>
	<path class="st0" d="M41,28.5c-0.2,0-0.3-0.1-0.3-0.3v-5.5l-1.5,0.1V23l0.4,0.1c0.1,0,0.2,0,0.2,0.3v4.8c0,0.1,0,0.2-0.3,0.3
		l-0.3,0.1v0.3h2.1v-0.3L41,28.5L41,28.5z"/>
	<path class="st0" d="M45.2,23l0.4,0.1c0.1,0,0.4,0,0.4,0.4v4.6c0,0.2-0.1,0.3-0.3,0.3l-0.5,0.1v0.3h2.4v-0.3l-0.4-0.1
		c-0.1,0-0.4,0-0.4-0.4v-4.6c0-0.2,0.1-0.3,0.3-0.3l0.5-0.1v-0.3h-2.4V23z"/>
	<path class="st0" d="M28.6,27.7c-0.4,0.6-0.8,0.7-1.2,0.7c-0.9,0-1.2-0.8-1.2-1.6v-0.2h2.6l0,0c-0.1-1-0.7-1.6-1.6-1.6
		c-1.1,0-1.8,0.8-1.8,1.9c0,1.2,0.7,1.9,1.8,1.9c0.8,0,1.4-0.4,1.6-1.1l0-0.1L28.6,27.7L28.6,27.7z M28,26.3h-1.7
		c0.1-0.6,0.5-1,0.9-1C27.7,25.2,27.9,25.6,28,26.3z"/>
	<path class="st0" d="M36.1,28.2c-0.1,0.1-0.3,0.2-0.4,0.2c-0.2,0-0.3-0.2-0.3-0.6V26c0-0.7-0.6-1-1.2-1c-0.7,0-1.3,0.4-1.3,0.9
		c0,0.2,0.1,0.4,0.3,0.4c0.2,0,0.3-0.1,0.3-0.1c0.1-0.1,0.1-0.2,0-0.4c0-0.3,0.2-0.4,0.6-0.4c0.5,0,0.6,0.3,0.6,0.7v0.9h-0.1
		c-1.4,0-2,0.4-2,1.1c0,0.5,0.4,0.9,1,0.9c0.3,0,0.8-0.1,1.1-0.5c0.1,0.4,0.3,0.5,0.7,0.5c0.4,0,0.7-0.2,0.8-0.5l0,0L36.1,28.2
		L36.1,28.2z M34.7,28c-0.2,0.2-0.4,0.4-0.8,0.4c-0.3,0-0.6-0.2-0.6-0.6c0-0.5,0.4-0.8,1.3-0.9V28z"/>
	<path class="st0" d="M52,28.5c-0.2,0-0.3-0.1-0.3-0.3v-5.4l-1.5,0.1V23l0.4,0.1c0.2,0,0.2,0,0.2,0.3v1.9c-0.4-0.3-0.8-0.3-1-0.3
		c-1.1,0-1.8,0.8-1.8,1.9c0,1.2,0.8,2,1.7,2c0.5,0,0.8-0.1,1.1-0.4l0.1,0.4l1.3-0.1l0,0v-0.3L52,28.5L52,28.5z M50.3,25.3
		c0.3,0,0.5,0.1,0.7,0.2v2.6c-0.2,0.2-0.5,0.3-0.8,0.3c-0.6,0-1.2-0.6-1.2-1.6C49,25.9,49.5,25.3,50.3,25.3z"/>
	<path class="st0" d="M56.2,27.7c-0.4,0.6-0.8,0.7-1.2,0.7c-0.9,0-1.2-0.8-1.2-1.6v-0.2h2.6l0,0c-0.1-1-0.7-1.6-1.6-1.6
		c-1.1,0-1.8,0.8-1.8,1.9c0,1.2,0.7,1.9,1.8,1.9c0.8,0,1.4-0.4,1.6-1.1l0-0.1L56.2,27.7L56.2,27.7z M53.8,26.3c0-0.7,0.5-1,1-1
		c0.5,0,0.7,0.3,0.8,1H53.8z"/>
	<path class="st0" d="M61.1,28.5c-0.3,0-0.3-0.1-0.3-0.3v-1.8c0-1-0.4-1.4-1.2-1.4c-0.6,0-1,0.3-1.3,0.7v-0.6H57v0.3l0.4,0.1
		c0.1,0,0.2,0,0.2,0.3v2.5c0,0.1,0,0.2-0.3,0.3L57,28.6l0,0v0.3H59v-0.3l-0.4-0.1c-0.2,0-0.3-0.1-0.3-0.3v-2.1
		c0.3-0.4,0.6-0.7,0.9-0.7c0.6,0,0.8,0.6,0.8,1.1v1.7c0,0.2,0,0.2-0.3,0.3l-0.3,0.1l0,0v0.3h2.1v-0.3L61.1,28.5L61.1,28.5z"/>
	<path class="st0" d="M64.5,28.2c-0.1,0-0.1,0.1-0.2,0.1c-0.1,0.1-0.3,0.2-0.4,0.2c-0.3,0-0.5-0.2-0.5-0.6v-2.4h1.1v-0.4h-1.1v-1
		h-0.3l-0.5,1H62v0.3h0.6v2.5c0,0.6,0.4,0.9,0.9,0.9c0.3,0,0.7-0.1,1.1-0.5l0,0L64.5,28.2L64.5,28.2z"/>
	<path class="st0" d="M66.9,28.5c-0.2,0-0.3-0.1-0.3-0.3V25l-1.5,0.1v0.3l0.4,0.1c0.2,0,0.2,0,0.2,0.3v2.5c0,0.1,0,0.2-0.3,0.3
		l-0.3,0.1l0,0v0.3h2.1v-0.3L66.9,28.5L66.9,28.5z"/>
	<circle class="st0" cx="66.1" cy="23.5" r="0.5"/>
	<path class="st0" d="M70.6,28.3l-0.2-0.2l0,0c-0.1,0-0.1,0.1-0.2,0.1c-0.1,0.1-0.3,0.2-0.4,0.2c-0.3,0-0.5-0.2-0.5-0.6v-2.4h1.1
		v-0.4h-1.1v-1H69l-0.5,1h-0.6v0.3h0.6v2.5c0,0.6,0.4,0.9,0.9,0.9C69.7,28.8,70.1,28.8,70.6,28.3L70.6,28.3z"/>
	<path class="st0" d="M73.2,25.1v0.3h0c0.2,0,0.3,0,0.4,0.1c0.1,0.1,0,0.3-0.1,0.6l-0.8,1.8L72,25.6c0,0,0-0.1,0-0.1
		c0.1-0.1,0.3-0.1,0.6-0.1h0v-0.3h-2v0.3h0c0.1,0,0.5,0,0.5,0.3l1.2,3.3L72,29.8c-0.1,0.3-0.4,0.9-0.7,0.9c-0.1,0-0.2-0.1-0.3-0.2
		c-0.1-0.2-0.2-0.4-0.4-0.4c-0.2,0-0.3,0.2-0.3,0.3c0,0.4,0.6,0.6,0.8,0.6c0.6,0,0.8-0.2,1.2-1.2l1.5-3.6v0c0.3-0.7,0.4-0.8,0.8-0.9
		l0.1,0v-0.3H73.2z"/>
	<path class="st0" d="M23.8,27.1c-0.3-0.7-0.6-1-1.1-1.2c0.9-0.1,1.4-0.8,1.4-1.5c0-1.4-1.3-1.5-2.3-1.5h-2.2v0.3l0.4,0.1
		c0.1,0,0.4,0,0.4,0.4v4.6c0,0.2-0.1,0.3-0.3,0.3l-0.5,0.1v0.3h2.6v-0.3l-0.5-0.1c-0.3,0-0.5-0.1-0.5-0.4V26c0.8,0,1.4,0.1,1.7,1.3
		c0.2,1,0.8,1.6,1.5,1.6c0.3,0,0.5,0,0.8-0.2l0,0v-0.2h0C24.4,28.6,24.2,28.3,23.8,27.1z M21.2,23.2h0.5c1.1,0,1.6,0.4,1.6,1.2
		c0,0.9-0.5,1.4-1.6,1.4h-0.5V23.2z"/>
</g>
<polygon class="st0" points="77.3,7.9 77.3,9.5 80.7,9.5 80.7,15.9 82.5,15.9 82.5,9.5 85.9,9.5 85.9,7.9 "/>
<path class="st0" d="M11.8,7.9H7.9v7.9h3.9c2.8,0,4.4-1.5,4.4-4C16.3,9.3,14.7,7.9,11.8,7.9L11.8,7.9z M9.7,9.5h1.4
	c2.5,0,3.4,0.6,3.4,2.4c0,1.7-1,2.4-3.4,2.4H9.7V9.5L9.7,9.5z"/>
</svg>
